<svg width="125" height="75" viewBox="0 0 125 75" fill="none" xmlns="http://www.w3.org/2000/svg">
<path d="M31.8328 29.4883H88.3833V21.507H31.8328V8.04236H88.3833V0.0610352H27.478C25.4539 0.0610352 23.7979 1.70604 23.7979 3.7166V43.0139H31.8328V29.4883Z" fill="#44C697"/>
<path d="M97.5835 0H93.1674V42.9529H101.202V3.65556C101.264 1.645 99.6075 0 97.5835 0Z" fill="white"/>
<path d="M107.581 27.9648V49.289H17.4191V27.9648H4.60016C2.0241 27.9648 6.10352e-05 30.0363 6.10352e-05 32.5343V44.6586C6.10352e-05 47.2175 2.08544 49.2281 4.60016 49.2281H7.54422L8.83225 64.2159V74.9998H12.1443L16.0084 64.2159H108.992L112.856 74.9998H116.168V64.2159L117.456 49.2281H120.4C122.976 49.2281 125 47.1566 125 44.6586V32.5343C125 29.9754 122.915 27.9648 120.4 27.9648H107.581Z" fill="white"/>
</svg>
